<svg width="10" height="16" viewBox="0 0 10 16" fill="none" xmlns="http://www.w3.org/2000/svg">
<path d="M3.17187 5.50001V11.1191C3.17837 11.53 3.34615 11.9219 3.63902 12.2102C3.93189 12.4985 4.32636 12.66 4.7373 12.66C5.14825 12.66 5.54272 12.4985 5.83559 12.2102C6.12846 11.9219 6.29624 11.53 6.30273 11.1191L6.30781 3.75391C6.31207 3.40271 6.24658 3.05416 6.11513 2.72846C5.98368 2.40276 5.78889 2.10639 5.54205 1.85654C5.2952 1.60668 5.00122 1.40831 4.67714 1.27292C4.35306 1.13753 4.00533 1.06781 3.6541 1.06781C3.30288 1.06781 2.95514 1.13753 2.63106 1.27292C2.30698 1.40831 2.013 1.60668 1.76616 1.85654C1.51931 2.10639 1.32452 2.40276 1.19307 2.72846C1.06162 3.05416 0.99613 3.40271 1.00039 3.75391V11.1688C0.993235 11.6632 1.08444 12.1541 1.2687 12.613C1.45296 13.0719 1.72661 13.4895 2.07372 13.8417C2.42084 14.1939 2.8345 14.4735 3.29066 14.6644C3.74682 14.8553 4.23637 14.9536 4.73086 14.9536C5.22535 14.9536 5.7149 14.8553 6.17106 14.6644C6.62722 14.4735 7.04088 14.1939 7.38799 13.8417C7.73511 13.4895 8.00875 13.0719 8.19302 12.613C8.37728 12.1541 8.46848 11.6632 8.46133 11.1688V4.23985" stroke="#828282" stroke-width="1.2" stroke-miterlimit="10" stroke-linecap="round"/>
</svg>
