<svg width="15" height="15" viewBox="0 0 15 15" fill="none" xmlns="http://www.w3.org/2000/svg">
<path d="M2.23409 11.375C2.27128 11.2381 2.18909 11.0478 2.11066 10.9106C2.08623 10.8697 2.05974 10.8301 2.03128 10.7919C1.35855 9.77165 0.999988 8.57644 1.00003 7.35437C0.989093 3.84656 3.89784 1 7.49472 1C10.6316 1 13.25 3.17313 13.8619 6.05781C13.9536 6.4855 13.9999 6.92166 14 7.35906C14 10.8719 11.2035 13.7631 7.60659 13.7631C7.03472 13.7631 6.26284 13.6194 5.84191 13.5016C5.42097 13.3837 5.00066 13.2275 4.89222 13.1856C4.78131 13.143 4.66353 13.1211 4.54472 13.1209C4.41494 13.1204 4.28641 13.1463 4.16691 13.1969L2.04722 13.9619C2.00078 13.9819 1.95157 13.9947 1.90128 14C1.86159 13.9999 1.82232 13.9919 1.78574 13.9765C1.74917 13.9611 1.71601 13.9386 1.68819 13.9103C1.66038 13.8819 1.63846 13.8484 1.6237 13.8116C1.60894 13.7747 1.60164 13.7353 1.60222 13.6956C1.60483 13.6608 1.61111 13.6263 1.62097 13.5928L2.23409 11.375Z" stroke="#828282" stroke-width="1.2" stroke-miterlimit="10" stroke-linecap="round"/>
</svg>
