<svg width="20" height="20" viewBox="0 0 20 20" fill="none" xmlns="http://www.w3.org/2000/svg">
<path d="M14.6875 5.625C14.5344 7.69023 12.9688 9.375 11.25 9.375C9.53125 9.375 7.96289 7.69063 7.8125 5.625C7.65625 3.47656 9.17969 1.875 11.25 1.875C13.3203 1.875 14.8438 3.51562 14.6875 5.625Z" stroke="#4F4F4F" stroke-width="1.2" stroke-linecap="round" stroke-linejoin="round"/>
<path d="M11.25 11.875C7.85157 11.875 4.40235 13.75 3.76406 17.2891C3.68594 17.7156 3.92852 18.125 4.37539 18.125H18.125C18.5719 18.125 18.8133 17.7156 18.7363 17.2891C18.0977 13.75 14.6484 11.875 11.25 11.875Z" stroke="#4F4F4F" stroke-width="1.2" stroke-miterlimit="10"/>
<path d="M5.625 9.0625H1.25M3.4375 6.875V11.25V6.875Z" stroke="#4F4F4F" stroke-width="1.2" stroke-linecap="round" stroke-linejoin="round"/>
</svg>
